<?xml version="1.0" standalone="no"?>
<!DOCTYPE svg PUBLIC "-//W3C//DTD SVG 20010904//EN"
 "http://www.w3.org/TR/2001/REC-SVG-20010904/DTD/svg10.dtd">
<svg version="1.0" xmlns="http://www.w3.org/2000/svg"
 width="512.000000pt" height="512.000000pt" viewBox="0 0 512.000000 512.000000"
 preserveAspectRatio="xMidYMid meet">
<metadata>
Created by potrace 1.14, written by Peter Selinger 2001-2017
</metadata>
<g transform="translate(0.000000,512.000000) scale(0.100000,-0.100000)"
fill="#000000" stroke="none">
<path d="M1257 4904 c-1 -1 -27 -4 -57 -7 -138 -14 -256 -73 -366 -183 -65
-64 -90 -97 -122 -165 -74 -153 -70 -23 -68 -2009 2 -982 6 -1801 10 -1820 42
-189 169 -351 342 -439 139 -70 36 -66 1574 -66 l1385 0 80 28 c185 66 314
184 394 361 53 116 52 88 52 1509 1 724 -3 1332 -6 1350 -4 17 -17 46 -28 62
-12 17 -317 326 -678 688 -454 454 -669 663 -696 674 -35 15 -119 17 -926 17
-489 1 -889 0 -890 0z m1514 -438 c0 -6 2 -256 3 -556 2 -593 1 -580 60 -643
14 -15 45 -37 68 -47 41 -19 71 -20 598 -20 l555 0 -1 -1187 c0 -884 -3 -1199
-12 -1229 -15 -50 -82 -116 -138 -134 -57 -19 -2631 -19 -2687 -1 -50 17 -103
64 -129 114 -20 40 -20 46 -20 1794 l0 1753 22 42 c27 53 59 84 110 107 38 17
92 18 805 18 541 0 765 -4 766 -11z m747 -609 c125 -125 228 -229 229 -230 1
-1 -121 -2 -270 -2 l-272 0 -3 275 -2 274 46 -44 c25 -25 148 -148 272 -273z"/>
<path d="M1710 3409 c-138 -11 -224 -106 -213 -234 4 -50 48 -122 91 -152 51
-34 110 -40 362 -38 204 1 240 4 270 19 173 89 164 324 -16 395 -33 13 -380
20 -494 10z"/>
<path d="M1636 2545 c-81 -29 -140 -114 -139 -201 1 -84 44 -152 121 -191 35
-17 84 -18 927 -20 562 -1 904 2 928 8 73 19 142 102 153 184 6 47 -22 127
-58 163 -69 72 5 67 -993 69 -744 2 -907 0 -939 -12z"/>
<path d="M1685 1702 c-78 -13 -134 -51 -166 -113 -53 -105 -12 -231 94 -284
l51 -25 891 0 c653 0 901 3 926 12 88 30 148 115 144 205 -3 60 -16 92 -54
136 -66 74 -13 70 -991 71 -481 1 -884 0 -895 -2z"/>
</g>
</svg>
